<svg width="21.500000" height="15.500854" viewBox="0 0 21.5 15.5009" fill="none" xmlns="http://www.w3.org/2000/svg" xmlns:xlink="http://www.w3.org/1999/xlink">
	<desc>
			Created with Pixso.
	</desc>
	<defs/>
	<path id="Vector" d="M3.33582 14.165C3.71082 14.5402 4.2196 14.7509 4.75 14.7509C5.2804 14.7509 5.78918 14.5402 6.16418 14.165C6.53931 13.79 6.75 13.2812 6.75 12.7509C6.75 12.2205 6.53931 11.7117 6.16418 11.3367C5.78918 10.9615 5.2804 10.7509 4.75 10.7509C4.2196 10.7509 3.71082 10.9615 3.33582 11.3367C2.96069 11.7117 2.75 12.2205 2.75 12.7509C2.75 13.2812 2.96069 13.79 3.33582 14.165ZM15.3358 14.165C15.7108 14.5402 16.2196 14.7509 16.75 14.7509C17.2804 14.7509 17.7892 14.5402 18.1642 14.165C18.5393 13.79 18.75 13.2812 18.75 12.7509C18.75 12.2205 18.5393 11.7117 18.1642 11.3367C17.7892 10.9615 17.2804 10.7509 16.75 10.7509C16.2196 10.7509 15.7108 10.9615 15.3358 11.3367C14.9607 11.7117 14.75 12.2205 14.75 12.7509C14.75 13.2812 14.9607 13.79 15.3358 14.165ZM2.75 12.7509L0.75 12.7509L0.75 1.75085C0.75 1.4856 0.855347 1.23132 1.04285 1.0437C1.23047 0.856201 1.48474 0.750854 1.75 0.750854L15.75 0.750854C17.076 0.750854 18.3479 1.4884 19.2855 2.80115C20.2233 4.11389 20.75 5.89429 20.75 7.75085L20.75 12.7509L18.75 12.7509M14.75 12.7509L6.75 12.7509M14.75 0.750854L16.25 7.75085L20.75 7.75085M0.75 5.75085L15.75 5.75085M5.75 0.750854L5.75 5.75085M10.75 0.750854L10.75 5.75085" stroke="#1DD100" stroke-opacity="1.000000" stroke-width="1.500000" stroke-linejoin="round"/>
</svg>
